<mxfile host="app.diagrams.net" modified="2022-12-28T07:01:59.873Z" agent="5.0 (Windows NT 10.0; Win64; x64) AppleWebKit/537.36 (KHTML, like Gecko) Chrome/106.0.0.0 YaBrowser/22.11.5.715 Yowser/2.5 Safari/537.36" etag="tkJhvwPq6_FgdKMQZ_kc" version="20.7.4" type="github">
  <diagram name="Page-1" id="e7e014a7-5840-1c2e-5031-d8a46d1fe8dd">
    <mxGraphModel dx="2555" dy="791" grid="1" gridSize="10" guides="1" tooltips="1" connect="1" arrows="1" fold="1" page="1" pageScale="1" pageWidth="1169" pageHeight="826" background="none" math="0" shadow="0">
      <root>
        <mxCell id="0" />
        <mxCell id="1" parent="0" />
        <mxCell id="cRHzYJ0gQjoIReFaO4qA-41" value="Неавторизованный пользователь" style="shape=umlActor;verticalLabelPosition=bottom;verticalAlign=top;html=1;outlineConnect=0;rounded=0;" parent="1" vertex="1">
          <mxGeometry x="70" y="190" width="30" height="60" as="geometry" />
        </mxCell>
        <mxCell id="cRHzYJ0gQjoIReFaO4qA-42" value="" style="rounded=0;whiteSpace=wrap;html=1;" parent="1" vertex="1">
          <mxGeometry x="180" y="70" width="880" height="690" as="geometry" />
        </mxCell>
        <mxCell id="cRHzYJ0gQjoIReFaO4qA-43" value="Сайт игры &lt;br&gt;(возврат транзакции)" style="text;html=1;strokeColor=none;fillColor=none;align=center;verticalAlign=middle;whiteSpace=wrap;rounded=0;hachureGap=4;fontFamily=Times New Roman;fontSize=20;fontStyle=1;" parent="1" vertex="1">
          <mxGeometry x="190" y="70" width="220" height="50" as="geometry" />
        </mxCell>
        <mxCell id="cRHzYJ0gQjoIReFaO4qA-44" value="Регистрация" style="ellipse;whiteSpace=wrap;html=1;fontSize=16;" parent="1" vertex="1">
          <mxGeometry x="290" y="240" width="120" height="40" as="geometry" />
        </mxCell>
        <mxCell id="cRHzYJ0gQjoIReFaO4qA-45" value="Почта&lt;br&gt;Никнейм&lt;br&gt;Пароль" style="rounded=0;whiteSpace=wrap;html=1;fontSize=16;" parent="1" vertex="1">
          <mxGeometry x="280" y="310" width="110" height="60" as="geometry" />
        </mxCell>
        <mxCell id="cRHzYJ0gQjoIReFaO4qA-46" value="" style="endArrow=none;html=1;rounded=0;fontSize=12;curved=1;exitX=0.5;exitY=0.5;exitDx=0;exitDy=0;exitPerimeter=0;entryX=0;entryY=0.5;entryDx=0;entryDy=0;" parent="1" source="cRHzYJ0gQjoIReFaO4qA-41" target="cRHzYJ0gQjoIReFaO4qA-44" edge="1">
          <mxGeometry width="50" height="50" relative="1" as="geometry">
            <mxPoint x="150" y="449" as="sourcePoint" />
            <mxPoint x="200" y="399" as="targetPoint" />
          </mxGeometry>
        </mxCell>
        <mxCell id="cRHzYJ0gQjoIReFaO4qA-47" value="Авторизованный пользователь" style="shape=umlActor;verticalLabelPosition=bottom;verticalAlign=top;html=1;outlineConnect=0;rounded=0;" parent="1" vertex="1">
          <mxGeometry x="70" y="540" width="30" height="60" as="geometry" />
        </mxCell>
        <mxCell id="cRHzYJ0gQjoIReFaO4qA-48" value="" style="endArrow=none;html=1;rounded=0;fontSize=12;curved=1;exitX=0;exitY=0;exitDx=0;exitDy=0;entryX=0;entryY=0.5;entryDx=0;entryDy=0;" parent="1" source="cRHzYJ0gQjoIReFaO4qA-45" target="cRHzYJ0gQjoIReFaO4qA-44" edge="1">
          <mxGeometry width="50" height="50" relative="1" as="geometry">
            <mxPoint x="245" y="330" as="sourcePoint" />
            <mxPoint x="280" y="260" as="targetPoint" />
          </mxGeometry>
        </mxCell>
        <mxCell id="cRHzYJ0gQjoIReFaO4qA-49" value="Авторизация" style="ellipse;whiteSpace=wrap;html=1;fontSize=16;" parent="1" vertex="1">
          <mxGeometry x="490" y="150" width="120" height="40" as="geometry" />
        </mxCell>
        <mxCell id="cRHzYJ0gQjoIReFaO4qA-50" value="Ввод данных платежа" style="ellipse;whiteSpace=wrap;html=1;fontSize=16;" parent="1" vertex="1">
          <mxGeometry x="390" y="400" width="170" height="70" as="geometry" />
        </mxCell>
        <mxCell id="cRHzYJ0gQjoIReFaO4qA-51" value="" style="endArrow=none;html=1;rounded=0;fontSize=12;curved=1;exitX=0.5;exitY=0.5;exitDx=0;exitDy=0;exitPerimeter=0;entryX=0;entryY=0.5;entryDx=0;entryDy=0;" parent="1" source="cRHzYJ0gQjoIReFaO4qA-47" target="cRHzYJ0gQjoIReFaO4qA-50" edge="1">
          <mxGeometry width="50" height="50" relative="1" as="geometry">
            <mxPoint x="510" y="450" as="sourcePoint" />
            <mxPoint x="560" y="400" as="targetPoint" />
          </mxGeometry>
        </mxCell>
        <mxCell id="cRHzYJ0gQjoIReFaO4qA-52" value="Привязка соцсетей" style="ellipse;whiteSpace=wrap;html=1;fontSize=16;" parent="1" vertex="1">
          <mxGeometry x="450" y="250" width="150" height="50" as="geometry" />
        </mxCell>
        <mxCell id="cRHzYJ0gQjoIReFaO4qA-53" value="" style="endArrow=classic;html=1;rounded=0;dashed=1;fontSize=12;curved=1;exitX=0.5;exitY=1;exitDx=0;exitDy=0;entryX=0.5;entryY=0;entryDx=0;entryDy=0;" parent="1" source="cRHzYJ0gQjoIReFaO4qA-50" target="cRHzYJ0gQjoIReFaO4qA-54" edge="1">
          <mxGeometry width="50" height="50" relative="1" as="geometry">
            <mxPoint x="510" y="440" as="sourcePoint" />
            <mxPoint x="560" y="390" as="targetPoint" />
          </mxGeometry>
        </mxCell>
        <mxCell id="cRHzYJ0gQjoIReFaO4qA-54" value="Найти все платежи" style="ellipse;whiteSpace=wrap;html=1;fontSize=16;" parent="1" vertex="1">
          <mxGeometry x="405" y="540" width="140" height="60" as="geometry" />
        </mxCell>
        <mxCell id="cRHzYJ0gQjoIReFaO4qA-55" value="extend" style="text;html=1;strokeColor=none;fillColor=none;align=center;verticalAlign=middle;whiteSpace=wrap;rounded=0;fontSize=16;rotation=0;" parent="1" vertex="1">
          <mxGeometry x="405" y="490" width="60" height="30" as="geometry" />
        </mxCell>
        <mxCell id="cRHzYJ0gQjoIReFaO4qA-56" value="Запрос по блокировке транзакций" style="ellipse;whiteSpace=wrap;html=1;fontSize=16;" parent="1" vertex="1">
          <mxGeometry x="397.5" y="660" width="155" height="70" as="geometry" />
        </mxCell>
        <mxCell id="cRHzYJ0gQjoIReFaO4qA-57" value="" style="endArrow=classic;html=1;rounded=0;dashed=1;fontSize=12;curved=1;exitX=0.5;exitY=1;exitDx=0;exitDy=0;entryX=0.5;entryY=0;entryDx=0;entryDy=0;" parent="1" source="cRHzYJ0gQjoIReFaO4qA-54" target="cRHzYJ0gQjoIReFaO4qA-56" edge="1">
          <mxGeometry width="50" height="50" relative="1" as="geometry">
            <mxPoint x="485" y="480" as="sourcePoint" />
            <mxPoint x="485" y="550" as="targetPoint" />
          </mxGeometry>
        </mxCell>
        <mxCell id="cRHzYJ0gQjoIReFaO4qA-58" value="include" style="text;html=1;strokeColor=none;fillColor=none;align=center;verticalAlign=middle;whiteSpace=wrap;rounded=0;fontSize=16;rotation=0;" parent="1" vertex="1">
          <mxGeometry x="410" y="610" width="60" height="30" as="geometry" />
        </mxCell>
        <mxCell id="cRHzYJ0gQjoIReFaO4qA-59" value="Возврат денег" style="ellipse;whiteSpace=wrap;html=1;fontSize=16;" parent="1" vertex="1">
          <mxGeometry x="600" y="340" width="120" height="40" as="geometry" />
        </mxCell>
        <mxCell id="cRHzYJ0gQjoIReFaO4qA-60" value="" style="endArrow=classic;html=1;rounded=0;dashed=1;fontSize=12;curved=1;exitX=1;exitY=0;exitDx=0;exitDy=0;entryX=0;entryY=0.5;entryDx=0;entryDy=0;" parent="1" source="cRHzYJ0gQjoIReFaO4qA-50" target="cRHzYJ0gQjoIReFaO4qA-59" edge="1">
          <mxGeometry width="50" height="50" relative="1" as="geometry">
            <mxPoint x="510" y="430" as="sourcePoint" />
            <mxPoint x="560" y="380" as="targetPoint" />
          </mxGeometry>
        </mxCell>
        <mxCell id="cRHzYJ0gQjoIReFaO4qA-61" value="include" style="text;html=1;strokeColor=none;fillColor=none;align=center;verticalAlign=middle;whiteSpace=wrap;rounded=0;fontSize=16;rotation=-30;" parent="1" vertex="1">
          <mxGeometry x="520" y="350" width="60" height="30" as="geometry" />
        </mxCell>
        <mxCell id="cRHzYJ0gQjoIReFaO4qA-62" value="Подтверждение&lt;br&gt;возврата" style="ellipse;whiteSpace=wrap;html=1;fontSize=16;" parent="1" vertex="1">
          <mxGeometry x="770" y="378" width="140" height="70" as="geometry" />
        </mxCell>
        <mxCell id="cRHzYJ0gQjoIReFaO4qA-63" value="" style="endArrow=classic;html=1;rounded=0;dashed=1;fontSize=12;curved=1;exitX=1;exitY=0.5;exitDx=0;exitDy=0;entryX=0;entryY=0.5;entryDx=0;entryDy=0;" parent="1" source="cRHzYJ0gQjoIReFaO4qA-59" target="cRHzYJ0gQjoIReFaO4qA-62" edge="1">
          <mxGeometry width="50" height="50" relative="1" as="geometry">
            <mxPoint x="510" y="410" as="sourcePoint" />
            <mxPoint x="560" y="360" as="targetPoint" />
          </mxGeometry>
        </mxCell>
        <mxCell id="cRHzYJ0gQjoIReFaO4qA-64" value="include" style="text;html=1;strokeColor=none;fillColor=none;align=center;verticalAlign=middle;whiteSpace=wrap;rounded=0;fontSize=16;rotation=0;" parent="1" vertex="1">
          <mxGeometry x="730" y="350" width="60" height="30" as="geometry" />
        </mxCell>
        <mxCell id="cRHzYJ0gQjoIReFaO4qA-65" value="Создание&lt;br&gt;Квитанции" style="ellipse;whiteSpace=wrap;html=1;fontSize=16;" parent="1" vertex="1">
          <mxGeometry x="880" y="490" width="120" height="50" as="geometry" />
        </mxCell>
        <mxCell id="cRHzYJ0gQjoIReFaO4qA-66" value="" style="endArrow=classic;html=1;rounded=0;dashed=1;fontSize=12;curved=1;exitX=0.5;exitY=1;exitDx=0;exitDy=0;entryX=0.5;entryY=0;entryDx=0;entryDy=0;" parent="1" source="cRHzYJ0gQjoIReFaO4qA-62" target="cRHzYJ0gQjoIReFaO4qA-65" edge="1">
          <mxGeometry width="50" height="50" relative="1" as="geometry">
            <mxPoint x="510" y="400" as="sourcePoint" />
            <mxPoint x="560" y="350" as="targetPoint" />
          </mxGeometry>
        </mxCell>
        <mxCell id="cRHzYJ0gQjoIReFaO4qA-67" value="include" style="text;html=1;strokeColor=none;fillColor=none;align=center;verticalAlign=middle;whiteSpace=wrap;rounded=0;fontSize=16;rotation=0;" parent="1" vertex="1">
          <mxGeometry x="890" y="440" width="60" height="30" as="geometry" />
        </mxCell>
        <mxCell id="cRHzYJ0gQjoIReFaO4qA-68" value="Скачивание&lt;br&gt;квитанции" style="ellipse;whiteSpace=wrap;html=1;fontSize=16;" parent="1" vertex="1">
          <mxGeometry x="920" y="610" width="120" height="50" as="geometry" />
        </mxCell>
        <mxCell id="cRHzYJ0gQjoIReFaO4qA-69" value="" style="endArrow=classic;html=1;rounded=0;dashed=1;fontSize=12;curved=1;exitX=0.5;exitY=1;exitDx=0;exitDy=0;entryX=0.5;entryY=0;entryDx=0;entryDy=0;" parent="1" source="cRHzYJ0gQjoIReFaO4qA-65" target="cRHzYJ0gQjoIReFaO4qA-68" edge="1">
          <mxGeometry width="50" height="50" relative="1" as="geometry">
            <mxPoint x="870" y="405" as="sourcePoint" />
            <mxPoint x="870" y="450" as="targetPoint" />
          </mxGeometry>
        </mxCell>
        <mxCell id="cRHzYJ0gQjoIReFaO4qA-70" value="extend" style="text;html=1;strokeColor=none;fillColor=none;align=center;verticalAlign=middle;whiteSpace=wrap;rounded=0;fontSize=16;rotation=0;" parent="1" vertex="1">
          <mxGeometry x="890" y="555" width="60" height="30" as="geometry" />
        </mxCell>
        <mxCell id="cRHzYJ0gQjoIReFaO4qA-71" value="" style="endArrow=classic;html=1;rounded=0;exitX=1;exitY=0.5;exitDx=0;exitDy=0;entryX=0;entryY=0.5;entryDx=0;entryDy=0;dashed=1;" parent="1" source="cRHzYJ0gQjoIReFaO4qA-44" target="cRHzYJ0gQjoIReFaO4qA-52" edge="1">
          <mxGeometry width="50" height="50" relative="1" as="geometry">
            <mxPoint x="330" y="320" as="sourcePoint" />
            <mxPoint x="380" y="270" as="targetPoint" />
          </mxGeometry>
        </mxCell>
        <mxCell id="cRHzYJ0gQjoIReFaO4qA-72" value="extend" style="text;html=1;strokeColor=none;fillColor=none;align=center;verticalAlign=middle;whiteSpace=wrap;rounded=0;rotation=25;" parent="1" vertex="1">
          <mxGeometry x="405" y="240" width="60" height="30" as="geometry" />
        </mxCell>
        <mxCell id="cRHzYJ0gQjoIReFaO4qA-73" value="" style="endArrow=classic;html=1;rounded=0;dashed=1;exitX=1;exitY=0;exitDx=0;exitDy=0;entryX=0;entryY=0.5;entryDx=0;entryDy=0;" parent="1" source="cRHzYJ0gQjoIReFaO4qA-44" target="cRHzYJ0gQjoIReFaO4qA-49" edge="1">
          <mxGeometry width="50" height="50" relative="1" as="geometry">
            <mxPoint x="340" y="350" as="sourcePoint" />
            <mxPoint x="390" y="300" as="targetPoint" />
          </mxGeometry>
        </mxCell>
        <mxCell id="cRHzYJ0gQjoIReFaO4qA-74" value="include" style="text;html=1;strokeColor=none;fillColor=none;align=center;verticalAlign=middle;whiteSpace=wrap;rounded=0;rotation=-45;" parent="1" vertex="1">
          <mxGeometry x="410" y="180" width="60" height="30" as="geometry" />
        </mxCell>
      </root>
    </mxGraphModel>
  </diagram>
</mxfile>
